<svg xmlns="http://www.w3.org/2000/svg" xmlns:xlink="http://www.w3.org/1999/xlink" width="100%" height="100%" viewBox="0 0 2400 1254">
  <defs>
    <style>
      @import url("https://fonts.googleapis.com/css2?family=Spartan:wght@300;400;500;600;700;800;900&display=swap");

    </style>
    <clipPath id="clip-path">
      <rect width="1176" height="922" fill="none"/>
    </clipPath>
    <filter id="headline" x="568" y="190" width="1230" height="121" filterUnits="userSpaceOnUse">
      <feOffset dy="3" input="SourceAlpha"/>
      <feGaussianBlur stdDeviation="3" result="blur"/>
      <feFlood flood-opacity="0.161"/>
      <feComposite operator="in" in2="blur"/>
      <feComposite in="SourceGraphic"/>
    </filter>
    <filter id="title" x="101" y="430" width="109" height="480" filterUnits="userSpaceOnUse">
      <feOffset dy="3" input="SourceAlpha"/>
      <feGaussianBlur stdDeviation="3" result="blur-2"/>
      <feFlood flood-opacity="0.161"/>
      <feComposite operator="in" in2="blur-2"/>
      <feComposite in="SourceGraphic"/>
    </filter>
    <linearGradient id="linear-gradient" x2="1" gradientUnits="objectBoundingBox">
      <stop offset="0" stop-color="red"/>
      <stop offset="1" stop-color="#ffd70a"/>
    </linearGradient>
    <filter id="Rectangle_3" x="754" y="576" width="570" height="570" filterUnits="userSpaceOnUse">
      <feOffset dy="10" input="SourceAlpha"/>
      <feGaussianBlur stdDeviation="45" result="blur-3"/>
      <feFlood flood-opacity="0.29"/>
      <feComposite operator="in" in2="blur-3"/>
      <feComposite in="SourceGraphic"/>
    </filter>
    <linearGradient id="linear-gradient-2" x2="1" gradientUnits="objectBoundingBox">
      <stop offset="0" stop-color="#7ed321"/>
      <stop offset="1" stop-color="#50e3c2"/>
    </linearGradient>
    <filter id="Rectangle_4" x="1399" y="424" width="570" height="570" filterUnits="userSpaceOnUse">
      <feOffset dy="10" input="SourceAlpha"/>
      <feGaussianBlur stdDeviation="45" result="blur-4"/>
      <feFlood flood-opacity="0.314"/>
      <feComposite operator="in" in2="blur-4"/>
      <feComposite in="SourceGraphic"/>
    </filter>
    <filter id="hotpixel_pixel" x="544" y="825" width="287" height="138" filterUnits="userSpaceOnUse">
      <feOffset input="SourceAlpha"/>
      <feGaussianBlur stdDeviation="10" result="blur-5"/>
      <feFlood flood-color="#fff"/>
      <feComposite operator="in" in2="blur-5"/>
      <feComposite in="SourceGraphic"/>
    </filter>
    <filter id="deadpixel_pixel" x="1898" y="689" width="287" height="138" filterUnits="userSpaceOnUse">
      <feOffset input="SourceAlpha"/>
      <feGaussianBlur stdDeviation="10" result="blur-6"/>
      <feFlood flood-color="#fff"/>
      <feComposite operator="in" in2="blur-6"/>
      <feComposite in="SourceGraphic"/>
    </filter>
    <clipPath id="clip-badpixels_EN_official">
      <rect width="2400" height="1254"/>
    </clipPath>
  </defs>
  <g id="badpixels_EN_official" clip-path="url(#clip-badpixels_EN_official)">
    <rect width="2400" height="1254" fill="#fff"/>
    <rect id="background" width="2400" height="1254" fill="rgba(220,220,220,0.3)" opacity="0.204"/>
    <path id="donut" d="M-11289,999a542.127,542.127,0,0,1-54.525-2.753,534.4,534.4,0,0,1-52.948-8.083c-17.158-3.511-34.352-7.933-51.1-13.141-16.555-5.153-33.038-11.187-48.992-17.935a533.137,533.137,0,0,1-90.583-49.171,537.1,537.1,0,0,1-78.921-65.125,537.378,537.378,0,0,1-65.115-78.933,533.222,533.222,0,0,1-49.165-90.6c-6.753-15.966-12.786-32.452-17.933-49-5.2-16.715-9.619-33.912-13.139-51.113a533.965,533.965,0,0,1-8.082-52.955c-.71-6.994-1.289-14.126-1.726-21.2h267.67c.854,6.846,1.979,13.712,3.352,20.409a265.393,265.393,0,0,0,15.535,50.058,266.979,266.979,0,0,0,24.58,45.3,268.725,268.725,0,0,0,32.558,39.467,268.593,268.593,0,0,0,39.461,32.563,266.979,266.979,0,0,0,45.289,24.588,265.2,265.2,0,0,0,50.052,15.538,268.477,268.477,0,0,0,53.734,5.418,268.491,268.491,0,0,0,53.734-5.418,265.363,265.363,0,0,0,50.051-15.538,266.584,266.584,0,0,0,45.289-24.588,268.671,268.671,0,0,0,39.461-32.563,268.423,268.423,0,0,0,32.558-39.467,266.475,266.475,0,0,0,24.584-45.3,265.7,265.7,0,0,0,15.537-50.058c1.372-6.7,2.5-13.569,3.35-20.408h267.664c-.437,7.1-1.019,14.229-1.728,21.2a533.885,533.885,0,0,1-8.078,52.955c-3.518,17.189-7.938,34.386-13.143,51.113-5.143,16.535-11.174,33.021-17.929,49a533.383,533.383,0,0,1-49.168,90.6,537.211,537.211,0,0,1-65.116,78.933,537.29,537.29,0,0,1-78.917,65.125,533.417,533.417,0,0,1-90.583,49.171c-15.99,6.764-32.475,12.8-49,17.935-16.7,5.2-33.9,9.619-51.1,13.141a534.34,534.34,0,0,1-52.948,8.083A542.088,542.088,0,0,1-11289,999Z" transform="translate(12907 -499)" fill="#f4f4f7"/>
    <circle id="smaller_circle" cx="240.5" cy="240.5" r="240.5" transform="translate(169 945)" fill="#f4f4f7"/>
    <circle id="bigger_circle" cx="333" cy="333" r="333" transform="translate(1850 823)" fill="#f4f4f7"/>
    <g id="nice_grid" class="nice_grid"transform="translate(1030 332)" clip-path="url(#clip-path)">
      <g transform="translate(-532 -281)">
        <rect id="Rectangle_5" data-name="Rectangle 5" width="9" height="9" transform="translate(532 281)" fill="#aeaeaf"/>
      </g>
      <g transform="translate(-433 -281)">
        <rect id="Rectangle_5-2" data-name="Rectangle 5" width="9" height="9" transform="translate(532 281)" fill="#aeaeaf"/>
      </g>
      <g transform="translate(-334 -281)">
        <rect id="Rectangle_5-3" data-name="Rectangle 5" width="9" height="9" transform="translate(532 281)" fill="#aeaeaf"/>
      </g>
      <g transform="translate(-235 -281)">
        <rect id="Rectangle_5-4" data-name="Rectangle 5" width="9" height="9" transform="translate(532 281)" fill="#aeaeaf"/>
      </g>
      <g transform="translate(-136 -281)">
        <rect id="Rectangle_5-5" data-name="Rectangle 5" width="9" height="9" transform="translate(532 281)" fill="#aeaeaf"/>
      </g>
      <g transform="translate(-37 -281)">
        <rect id="Rectangle_5-6" data-name="Rectangle 5" width="9" height="9" transform="translate(532 281)" fill="#aeaeaf"/>
      </g>
      <g transform="translate(62 -281)">
        <rect id="Rectangle_5-7" data-name="Rectangle 5" width="9" height="9" transform="translate(532 281)" fill="#aeaeaf"/>
      </g>
      <g transform="translate(161 -281)">
        <rect id="Rectangle_5-8" data-name="Rectangle 5" width="9" height="9" transform="translate(532 281)" fill="#aeaeaf"/>
      </g>
      <g transform="translate(260 -281)">
        <rect id="Rectangle_5-9" data-name="Rectangle 5" width="9" height="9" transform="translate(532 281)" fill="#aeaeaf"/>
      </g>
      <g transform="translate(359 -281)">
        <rect id="Rectangle_5-10" data-name="Rectangle 5" width="9" height="9" transform="translate(532 281)" fill="#aeaeaf"/>
      </g>
      <g transform="translate(458 -281)">
        <rect id="Rectangle_5-11" data-name="Rectangle 5" width="9" height="9" transform="translate(532 281)" fill="#aeaeaf"/>
      </g>
      <g transform="translate(557 -281)">
        <rect id="Rectangle_5-12" data-name="Rectangle 5" width="9" height="9" transform="translate(532 281)" fill="#aeaeaf"/>
      </g>
      <g transform="translate(-532 -185)">
        <rect id="Rectangle_5-13" data-name="Rectangle 5" width="9" height="9" transform="translate(532 281)" fill="#aeaeaf"/>
      </g>
      <g transform="translate(-433 -185)">
        <rect id="Rectangle_5-14" data-name="Rectangle 5" width="9" height="9" transform="translate(532 281)" fill="#aeaeaf"/>
      </g>
      <g transform="translate(-334 -185)">
        <rect id="Rectangle_5-15" data-name="Rectangle 5" width="9" height="9" transform="translate(532 281)" fill="#aeaeaf"/>
      </g>
      <g transform="translate(-235 -185)">
        <rect id="Rectangle_5-16" data-name="Rectangle 5" width="9" height="9" transform="translate(532 281)" fill="#aeaeaf"/>
      </g>
      <g transform="translate(-136 -185)">
        <rect id="Rectangle_5-17" data-name="Rectangle 5" width="9" height="9" transform="translate(532 281)" fill="#aeaeaf"/>
      </g>
      <g transform="translate(-37 -185)">
        <rect id="Rectangle_5-18" data-name="Rectangle 5" width="9" height="9" transform="translate(532 281)" fill="#aeaeaf"/>
      </g>
      <g transform="translate(62 -185)">
        <rect id="Rectangle_5-19" data-name="Rectangle 5" width="9" height="9" transform="translate(532 281)" fill="#aeaeaf"/>
      </g>
      <g transform="translate(161 -185)">
        <rect id="Rectangle_5-20" data-name="Rectangle 5" width="9" height="9" transform="translate(532 281)" fill="#aeaeaf"/>
      </g>
      <g transform="translate(260 -185)">
        <rect id="Rectangle_5-21" data-name="Rectangle 5" width="9" height="9" transform="translate(532 281)" fill="#aeaeaf"/>
      </g>
      <g transform="translate(359 -185)">
        <rect id="Rectangle_5-22" data-name="Rectangle 5" width="9" height="9" transform="translate(532 281)" fill="#aeaeaf"/>
      </g>
      <g transform="translate(458 -185)">
        <rect id="Rectangle_5-23" data-name="Rectangle 5" width="9" height="9" transform="translate(532 281)" fill="#aeaeaf"/>
      </g>
      <g transform="translate(557 -185)">
        <rect id="Rectangle_5-24" data-name="Rectangle 5" width="9" height="9" transform="translate(532 281)" fill="#aeaeaf"/>
      </g>
      <g transform="translate(-532 -89)">
        <rect id="Rectangle_5-25" data-name="Rectangle 5" width="9" height="9" transform="translate(532 281)" fill="#aeaeaf"/>
      </g>
      <g transform="translate(-433 -89)">
        <rect id="Rectangle_5-26" data-name="Rectangle 5" width="9" height="9" transform="translate(532 281)" fill="#aeaeaf"/>
      </g>
      <g transform="translate(-334 -89)">
        <rect id="Rectangle_5-27" data-name="Rectangle 5" width="9" height="9" transform="translate(532 281)" fill="#aeaeaf"/>
      </g>
      <g transform="translate(-235 -89)">
        <rect id="Rectangle_5-28" data-name="Rectangle 5" width="9" height="9" transform="translate(532 281)" fill="#aeaeaf"/>
      </g>
      <g transform="translate(-136 -89)">
        <rect id="Rectangle_5-29" data-name="Rectangle 5" width="9" height="9" transform="translate(532 281)" fill="#aeaeaf"/>
      </g>
      <g transform="translate(-37 -89)">
        <rect id="Rectangle_5-30" data-name="Rectangle 5" width="9" height="9" transform="translate(532 281)" fill="#aeaeaf"/>
      </g>
      <g transform="translate(62 -89)">
        <rect id="Rectangle_5-31" data-name="Rectangle 5" width="9" height="9" transform="translate(532 281)" fill="#aeaeaf"/>
      </g>
      <g transform="translate(161 -89)">
        <rect id="Rectangle_5-32" data-name="Rectangle 5" width="9" height="9" transform="translate(532 281)" fill="#aeaeaf"/>
      </g>
      <g transform="translate(260 -89)">
        <rect id="Rectangle_5-33" data-name="Rectangle 5" width="9" height="9" transform="translate(532 281)" fill="#aeaeaf"/>
      </g>
      <g transform="translate(359 -89)">
        <rect id="Rectangle_5-34" data-name="Rectangle 5" width="9" height="9" transform="translate(532 281)" fill="#aeaeaf"/>
      </g>
      <g transform="translate(458 -89)">
        <rect id="Rectangle_5-35" data-name="Rectangle 5" width="9" height="9" transform="translate(532 281)" fill="#aeaeaf"/>
      </g>
      <g transform="translate(557 -89)">
        <rect id="Rectangle_5-36" data-name="Rectangle 5" width="9" height="9" transform="translate(532 281)" fill="#aeaeaf"/>
      </g>
      <g transform="translate(-532 7)">
        <rect id="Rectangle_5-37" data-name="Rectangle 5" width="9" height="9" transform="translate(532 281)" fill="#aeaeaf"/>
      </g>
      <g transform="translate(-433 7)">
        <rect id="Rectangle_5-38" data-name="Rectangle 5" width="9" height="9" transform="translate(532 281)" fill="#aeaeaf"/>
      </g>
      <g transform="translate(-334 7)">
        <rect id="Rectangle_5-39" data-name="Rectangle 5" width="9" height="9" transform="translate(532 281)" fill="#aeaeaf"/>
      </g>
      <g transform="translate(-235 7)">
        <rect id="Rectangle_5-40" data-name="Rectangle 5" width="9" height="9" transform="translate(532 281)" fill="#aeaeaf"/>
      </g>
      <g transform="translate(-136 7)">
        <rect id="Rectangle_5-41" data-name="Rectangle 5" width="9" height="9" transform="translate(532 281)" fill="#aeaeaf"/>
      </g>
      <g transform="translate(-37 7)">
        <rect id="Rectangle_5-42" data-name="Rectangle 5" width="9" height="9" transform="translate(532 281)" fill="#aeaeaf"/>
      </g>
      <g transform="translate(62 7)">
        <rect id="Rectangle_5-43" data-name="Rectangle 5" width="9" height="9" transform="translate(532 281)" fill="#aeaeaf"/>
      </g>
      <g transform="translate(161 7)">
        <rect id="Rectangle_5-44" data-name="Rectangle 5" width="9" height="9" transform="translate(532 281)" fill="#aeaeaf"/>
      </g>
      <g transform="translate(260 7)">
        <rect id="Rectangle_5-45" data-name="Rectangle 5" width="9" height="9" transform="translate(532 281)" fill="#aeaeaf"/>
      </g>
      <g transform="translate(359 7)">
        <rect id="Rectangle_5-46" data-name="Rectangle 5" width="9" height="9" transform="translate(532 281)" fill="#aeaeaf"/>
      </g>
      <g transform="translate(458 7)">
        <rect id="Rectangle_5-47" data-name="Rectangle 5" width="9" height="9" transform="translate(532 281)" fill="#aeaeaf"/>
      </g>
      <g transform="translate(557 7)">
        <rect id="Rectangle_5-48" data-name="Rectangle 5" width="9" height="9" transform="translate(532 281)" fill="#aeaeaf"/>
      </g>
      <g transform="translate(-532 103)">
        <rect id="Rectangle_5-49" data-name="Rectangle 5" width="9" height="9" transform="translate(532 281)" fill="#aeaeaf"/>
      </g>
      <g transform="translate(-433 103)">
        <rect id="Rectangle_5-50" data-name="Rectangle 5" width="9" height="9" transform="translate(532 281)" fill="#aeaeaf"/>
      </g>
      <g transform="translate(-334 103)">
        <rect id="Rectangle_5-51" data-name="Rectangle 5" width="9" height="9" transform="translate(532 281)" fill="#aeaeaf"/>
      </g>
      <g transform="translate(-235 103)">
        <rect id="Rectangle_5-52" data-name="Rectangle 5" width="9" height="9" transform="translate(532 281)" fill="#aeaeaf"/>
      </g>
      <g transform="translate(-136 103)">
        <rect id="Rectangle_5-53" data-name="Rectangle 5" width="9" height="9" transform="translate(532 281)" fill="#aeaeaf"/>
      </g>
      <g transform="translate(-37 103)">
        <rect id="Rectangle_5-54" data-name="Rectangle 5" width="9" height="9" transform="translate(532 281)" fill="#aeaeaf"/>
      </g>
      <g transform="translate(62 103)">
        <rect id="Rectangle_5-55" data-name="Rectangle 5" width="9" height="9" transform="translate(532 281)" fill="#aeaeaf"/>
      </g>
      <g transform="translate(161 103)">
        <rect id="Rectangle_5-56" data-name="Rectangle 5" width="9" height="9" transform="translate(532 281)" fill="#aeaeaf"/>
      </g>
      <g transform="translate(260 103)">
        <rect id="Rectangle_5-57" data-name="Rectangle 5" width="9" height="9" transform="translate(532 281)" fill="#aeaeaf"/>
      </g>
      <g transform="translate(359 103)">
        <rect id="Rectangle_5-58" data-name="Rectangle 5" width="9" height="9" transform="translate(532 281)" fill="#aeaeaf"/>
      </g>
      <g transform="translate(458 103)">
        <rect id="Rectangle_5-59" data-name="Rectangle 5" width="9" height="9" transform="translate(532 281)" fill="#aeaeaf"/>
      </g>
      <g transform="translate(557 103)">
        <rect id="Rectangle_5-60" data-name="Rectangle 5" width="9" height="9" transform="translate(532 281)" fill="#aeaeaf"/>
      </g>
      <g transform="translate(-532 199)">
        <rect id="Rectangle_5-61" data-name="Rectangle 5" width="9" height="9" transform="translate(532 281)" fill="#aeaeaf"/>
      </g>
      <g transform="translate(-433 199)">
        <rect id="Rectangle_5-62" data-name="Rectangle 5" width="9" height="9" transform="translate(532 281)" fill="#aeaeaf"/>
      </g>
      <g transform="translate(-334 199)">
        <rect id="Rectangle_5-63" data-name="Rectangle 5" width="9" height="9" transform="translate(532 281)" fill="#aeaeaf"/>
      </g>
      <g transform="translate(-235 199)">
        <rect id="Rectangle_5-64" data-name="Rectangle 5" width="9" height="9" transform="translate(532 281)" fill="#aeaeaf"/>
      </g>
      <g transform="translate(-136 199)">
        <rect id="Rectangle_5-65" data-name="Rectangle 5" width="9" height="9" transform="translate(532 281)" fill="#aeaeaf"/>
      </g>
      <g transform="translate(-37 199)">
        <rect id="Rectangle_5-66" data-name="Rectangle 5" width="9" height="9" transform="translate(532 281)" fill="#aeaeaf"/>
      </g>
      <g transform="translate(62 199)">
        <rect id="Rectangle_5-67" data-name="Rectangle 5" width="9" height="9" transform="translate(532 281)" fill="#aeaeaf"/>
      </g>
      <g transform="translate(161 199)">
        <rect id="Rectangle_5-68" data-name="Rectangle 5" width="9" height="9" transform="translate(532 281)" fill="#aeaeaf"/>
      </g>
      <g transform="translate(260 199)">
        <rect id="Rectangle_5-69" data-name="Rectangle 5" width="9" height="9" transform="translate(532 281)" fill="#aeaeaf"/>
      </g>
      <g transform="translate(359 199)">
        <rect id="Rectangle_5-70" data-name="Rectangle 5" width="9" height="9" transform="translate(532 281)" fill="#aeaeaf"/>
      </g>
      <g transform="translate(458 199)">
        <rect id="Rectangle_5-71" data-name="Rectangle 5" width="9" height="9" transform="translate(532 281)" fill="#aeaeaf"/>
      </g>
      <g transform="translate(557 199)">
        <rect id="Rectangle_5-72" data-name="Rectangle 5" width="9" height="9" transform="translate(532 281)" fill="#aeaeaf"/>
      </g>
      <g transform="translate(-532 295)">
        <rect id="Rectangle_5-73" data-name="Rectangle 5" width="9" height="9" transform="translate(532 281)" fill="#aeaeaf"/>
      </g>
      <g transform="translate(-433 295)">
        <rect id="Rectangle_5-74" data-name="Rectangle 5" width="9" height="9" transform="translate(532 281)" fill="#aeaeaf"/>
      </g>
      <g transform="translate(-334 295)">
        <rect id="Rectangle_5-75" data-name="Rectangle 5" width="9" height="9" transform="translate(532 281)" fill="#aeaeaf"/>
      </g>
      <g transform="translate(-235 295)">
        <rect id="Rectangle_5-76" data-name="Rectangle 5" width="9" height="9" transform="translate(532 281)" fill="#aeaeaf"/>
      </g>
      <g transform="translate(-136 295)">
        <rect id="Rectangle_5-77" data-name="Rectangle 5" width="9" height="9" transform="translate(532 281)" fill="#aeaeaf"/>
      </g>
      <g transform="translate(-37 295)">
        <rect id="Rectangle_5-78" data-name="Rectangle 5" width="9" height="9" transform="translate(532 281)" fill="#aeaeaf"/>
      </g>
      <g transform="translate(62 295)">
        <rect id="Rectangle_5-79" data-name="Rectangle 5" width="9" height="9" transform="translate(532 281)" fill="#aeaeaf"/>
      </g>
      <g transform="translate(161 295)">
        <rect id="Rectangle_5-80" data-name="Rectangle 5" width="9" height="9" transform="translate(532 281)" fill="#aeaeaf"/>
      </g>
      <g transform="translate(260 295)">
        <rect id="Rectangle_5-81" data-name="Rectangle 5" width="9" height="9" transform="translate(532 281)" fill="#aeaeaf"/>
      </g>
      <g transform="translate(359 295)">
        <rect id="Rectangle_5-82" data-name="Rectangle 5" width="9" height="9" transform="translate(532 281)" fill="#aeaeaf"/>
      </g>
      <g transform="translate(458 295)">
        <rect id="Rectangle_5-83" data-name="Rectangle 5" width="9" height="9" transform="translate(532 281)" fill="#aeaeaf"/>
      </g>
      <g transform="translate(557 295)">
        <rect id="Rectangle_5-84" data-name="Rectangle 5" width="9" height="9" transform="translate(532 281)" fill="#aeaeaf"/>
      </g>
      <g transform="translate(-532 391)">
        <rect id="Rectangle_5-85" data-name="Rectangle 5" width="9" height="9" transform="translate(532 281)" fill="#aeaeaf"/>
      </g>
      <g transform="translate(-433 391)">
        <rect id="Rectangle_5-86" data-name="Rectangle 5" width="9" height="9" transform="translate(532 281)" fill="#aeaeaf"/>
      </g>
      <g transform="translate(-334 391)">
        <rect id="Rectangle_5-87" data-name="Rectangle 5" width="9" height="9" transform="translate(532 281)" fill="#aeaeaf"/>
      </g>
      <g transform="translate(-235 391)">
        <rect id="Rectangle_5-88" data-name="Rectangle 5" width="9" height="9" transform="translate(532 281)" fill="#aeaeaf"/>
      </g>
      <g transform="translate(-136 391)">
        <rect id="Rectangle_5-89" data-name="Rectangle 5" width="9" height="9" transform="translate(532 281)" fill="#aeaeaf"/>
      </g>
      <g transform="translate(-37 391)">
        <rect id="Rectangle_5-90" data-name="Rectangle 5" width="9" height="9" transform="translate(532 281)" fill="#aeaeaf"/>
      </g>
      <g transform="translate(62 391)">
        <rect id="Rectangle_5-91" data-name="Rectangle 5" width="9" height="9" transform="translate(532 281)" fill="#aeaeaf"/>
      </g>
      <g transform="translate(161 391)">
        <rect id="Rectangle_5-92" data-name="Rectangle 5" width="9" height="9" transform="translate(532 281)" fill="#aeaeaf"/>
      </g>
      <g transform="translate(260 391)">
        <rect id="Rectangle_5-93" data-name="Rectangle 5" width="9" height="9" transform="translate(532 281)" fill="#aeaeaf"/>
      </g>
      <g transform="translate(359 391)">
        <rect id="Rectangle_5-94" data-name="Rectangle 5" width="9" height="9" transform="translate(532 281)" fill="#aeaeaf"/>
      </g>
      <g transform="translate(458 391)">
        <rect id="Rectangle_5-95" data-name="Rectangle 5" width="9" height="9" transform="translate(532 281)" fill="#aeaeaf"/>
      </g>
      <g transform="translate(557 391)">
        <rect id="Rectangle_5-96" data-name="Rectangle 5" width="9" height="9" transform="translate(532 281)" fill="#aeaeaf"/>
      </g>
      <g transform="translate(-532 487)">
        <rect id="Rectangle_5-97" data-name="Rectangle 5" width="9" height="9" transform="translate(532 281)" fill="#aeaeaf"/>
      </g>
      <g transform="translate(-433 487)">
        <rect id="Rectangle_5-98" data-name="Rectangle 5" width="9" height="9" transform="translate(532 281)" fill="#aeaeaf"/>
      </g>
      <g transform="translate(-334 487)">
        <rect id="Rectangle_5-99" data-name="Rectangle 5" width="9" height="9" transform="translate(532 281)" fill="#aeaeaf"/>
      </g>
      <g transform="translate(-235 487)">
        <rect id="Rectangle_5-100" data-name="Rectangle 5" width="9" height="9" transform="translate(532 281)" fill="#aeaeaf"/>
      </g>
      <g transform="translate(-136 487)">
        <rect id="Rectangle_5-101" data-name="Rectangle 5" width="9" height="9" transform="translate(532 281)" fill="#aeaeaf"/>
      </g>
      <g transform="translate(-37 487)">
        <rect id="Rectangle_5-102" data-name="Rectangle 5" width="9" height="9" transform="translate(532 281)" fill="#aeaeaf"/>
      </g>
      <g transform="translate(62 487)">
        <rect id="Rectangle_5-103" data-name="Rectangle 5" width="9" height="9" transform="translate(532 281)" fill="#aeaeaf"/>
      </g>
      <g transform="translate(161 487)">
        <rect id="Rectangle_5-104" data-name="Rectangle 5" width="9" height="9" transform="translate(532 281)" fill="#aeaeaf"/>
      </g>
      <g transform="translate(260 487)">
        <rect id="Rectangle_5-105" data-name="Rectangle 5" width="9" height="9" transform="translate(532 281)" fill="#aeaeaf"/>
      </g>
      <g transform="translate(359 487)">
        <rect id="Rectangle_5-106" data-name="Rectangle 5" width="9" height="9" transform="translate(532 281)" fill="#aeaeaf"/>
      </g>
      <g transform="translate(458 487)">
        <rect id="Rectangle_5-107" data-name="Rectangle 5" width="9" height="9" transform="translate(532 281)" fill="#aeaeaf"/>
      </g>
      <g transform="translate(557 487)">
        <rect id="Rectangle_5-108" data-name="Rectangle 5" width="9" height="9" transform="translate(532 281)" fill="#aeaeaf"/>
      </g>
      <g transform="translate(-532 583)">
        <rect id="Rectangle_5-109" data-name="Rectangle 5" width="9" height="9" transform="translate(532 281)" fill="#aeaeaf"/>
      </g>
      <g transform="translate(-433 583)">
        <rect id="Rectangle_5-110" data-name="Rectangle 5" width="9" height="9" transform="translate(532 281)" fill="#aeaeaf"/>
      </g>
      <g transform="translate(-334 583)">
        <rect id="Rectangle_5-111" data-name="Rectangle 5" width="9" height="9" transform="translate(532 281)" fill="#aeaeaf"/>
      </g>
      <g transform="translate(-235 583)">
        <rect id="Rectangle_5-112" data-name="Rectangle 5" width="9" height="9" transform="translate(532 281)" fill="#aeaeaf"/>
      </g>
      <g transform="translate(-136 583)">
        <rect id="Rectangle_5-113" data-name="Rectangle 5" width="9" height="9" transform="translate(532 281)" fill="#aeaeaf"/>
      </g>
      <g transform="translate(-37 583)">
        <rect id="Rectangle_5-114" data-name="Rectangle 5" width="9" height="9" transform="translate(532 281)" fill="#aeaeaf"/>
      </g>
      <g transform="translate(62 583)">
        <rect id="Rectangle_5-115" data-name="Rectangle 5" width="9" height="9" transform="translate(532 281)" fill="#aeaeaf"/>
      </g>
      <g transform="translate(161 583)">
        <rect id="Rectangle_5-116" data-name="Rectangle 5" width="9" height="9" transform="translate(532 281)" fill="#aeaeaf"/>
      </g>
      <g transform="translate(260 583)">
        <rect id="Rectangle_5-117" data-name="Rectangle 5" width="9" height="9" transform="translate(532 281)" fill="#aeaeaf"/>
      </g>
      <g transform="translate(359 583)">
        <rect id="Rectangle_5-118" data-name="Rectangle 5" width="9" height="9" transform="translate(532 281)" fill="#aeaeaf"/>
      </g>
      <g transform="translate(458 583)">
        <rect id="Rectangle_5-119" data-name="Rectangle 5" width="9" height="9" transform="translate(532 281)" fill="#aeaeaf"/>
      </g>
      <g transform="translate(557 583)">
        <rect id="Rectangle_5-120" data-name="Rectangle 5" width="9" height="9" transform="translate(532 281)" fill="#aeaeaf"/>
      </g>
    </g>
    <path id="rectangle" d="M0,0H210V210H0Z" transform="translate(530 145)" fill="#6a8caf"/>
    <g transform="matrix(1, 0, 0, 1, 0, 0)" filter="url(#headline)">
      <text id="headline-2" data-name="headline" transform="translate(578 274)" fill="#fff" font-size="90" font-family="Spartan-Bold, Spartan" font-weight="700" letter-spacing="0.08em"><tspan x="0" y="0">wh</tspan><tspan y="0" fill="#000">en pixels gone bad</tspan></text>
    </g>
    <g id="sidebar" fill="#6a8caf">
      <path d="M 309.5 1253.5 L 0.5 1253.5 L 0.5 0.5 L 309.5 0.5 L 309.5 915.6619873046875 L 309.5 1253.5 Z" stroke="none"/>
      <path d="M 1 1 L 1 1253 L 309 1253 L 309 915.6619873046875 L 309 1 L 1 1 M 0 0 L 310 0 L 310 915.6619873046875 L 310 1254 L 0 1254 L 0 0 Z" stroke="none" fill="#6a8caf"/>
    </g>
    <g transform="matrix(1, 0, 0, 1, 0, 0)" filter="url(#title)">
      <text id="title-2" data-name="title" transform="translate(180 898) rotate(-90)" fill="#fff" font-size="81" font-family="Spartan-ExtraBold, Spartan" font-weight="800"><tspan x="0" y="0">UNI&apos;S ABC</tspan></text>
    </g>
    <g id="icon" transform="translate(14.592 900.763)">
      <path id="path847" d="M125.168,261.775l-10.07-.386-1.172-3.674c-1.523-4.776-6.293-13.229-8.688-15.4-1.787-1.617-2.347-1.553-11.253,1.3a112.977,112.977,0,0,1-14.02,3.639c-8.807,1.207-12.836-3.438-12.631-14.56.112-6.038-.066-6.628-2.3-7.646-1.416-.645-.448-4.6-.783-6.215-.315-1.514-3.486-1.817-4.344-3.556-1.426-2.89-1.421-3.509.056-7.2,1.576-3.937,1.56-4.086-.614-5.992-1.226-1.075-3.453-3.043-4.949-4.374-1.541-1.371-2.719-3.449-2.719-4.8,0-1.307,2.609-6.343,5.8-11.192s6.755-10.692,7.925-12.985l2.126-4.168-2.981-4.115c-1.639-2.263-2.981-4.957-2.981-5.986,0-2.782,8.5-27.714,10.948-32.1,3.281-5.888,8.546-11.919,13.094-15,5.151-3.487,15.556-7.6,21.445-8.47a58.664,58.664,0,0,0,7.663-1.7c2.985-.963,3.214-1.348,3.214-5.41V87.422h41.58l.964,2.536a29.755,29.755,0,0,1,.964,8.026c0,5.25-.1,5.458-2.225,4.76a40.167,40.167,0,0,0-6.23-1.188c-3.575-.409-4.133-.178-5.191,2.144-1.687,3.7-1.466,9.009.455,10.931,1.545,1.545,6.577,1.728,11.214.406,1.754-.5,2.489,5.075,1.521,11.532-.6,4.026-.631,4.048-6.179,5.054-8.491,1.539-9.469,1.006-8.681-4.725.822-5.979.116-8.222-3.043-9.661-3.473-1.583-6.506-1.422-9.233.488-2.11,1.478-2.274,2.156-1.8,7.416l.525,5.79h-4.232a45.866,45.866,0,0,1-7.322-.618l-3.09-.618v-27.44h-2.461c-3.774,0-17.263,3.917-22.382,6.5-5.5,2.774-12.586,9.654-15.928,15.463-1.342,2.333-4.338,10.1-6.659,17.259l-4.218,13.018,2.44,3.3a27.265,27.265,0,0,1,3.064,5.064c1.028,2.914-1.693,9.014-8.614,19.312-3.6,5.36-6.549,10.152-6.548,10.649s2.005,2.17,4.454,3.717c5.2,3.283,6.24,6.082,4.373,11.739-1.23,3.726-1.176,4.108.8,5.71,1.425,1.154,5.627.19,5.26,1.593s-3.342,5.356-1.56,7.474c2.378,2.826,2.607,3.726,2.079,8.183-.629,5.309.565,8.928,3.562,10.8,2.116,1.321,7.335.062,27.008-6.517,20.744-6.937,23.231-8.328,25.777-14.421,1.66-3.972,3.768-3.7,4.19.54.464,4.664-4.171,9.219-13.381,13.149a79.976,79.976,0,0,0-8.551,4.023c-.475.409.025,2,1.111,3.538a94.255,94.255,0,0,1,5.132,9.08l3.158,6.284,30.5-.351c16.778-.193,30.8-.642,31.15-1s-.224-2.358-1.287-4.45c-4.42-8.7-6.563-19.013-6.545-31.491.02-14.491,1.484-18.836,11.462-34.049,3.722-5.674,6.767-10.68,6.767-11.124s-6.586-.808-14.637-.808H162.823l.982-5.938c.642-3.881.647-6.879.014-8.652-1.022-2.871.216-3.105-9.862-1.036-2.891.227-5.67-1.578-5.085-5.875a8.34,8.34,0,0,1,1.2-3.713c1.193-1.236,3.2-2.046,4.634-.345a23.5,23.5,0,0,0,6.154.85,3.3,3.3,0,0,0,2.7-1.2c1.11-1.75,1.054-8.483-.1-12.522-.9-3.126-.827-3.278,1.236-2.7a69.065,69.065,0,0,0,8.144,1.216c4.59.462,6.235.265,7.165-.856.976-1.176.829-1.8-.766-3.242-2.91-2.633-2.738-9.085.279-10.46a6.015,6.015,0,0,1,4.944,0c2.213.841,2.691,1.631,2.691,4.444a20.594,20.594,0,0,1-1.01,6.078c-.717,1.887-.682,3.051.121,4.02,1.67,2.012,9.26,1.673,13.744-.615a28.952,28.952,0,0,1,4.41-1.978c.294,0,.534,9.567.534,21.26v21.26h-3.461c-1.9,0-3.461.4-3.461.894s-3.185,5.72-7.078,11.619c-11.285,17.1-12.12,19.41-12.092,33.467.028,13.583,1.893,21.3,7.88,32.582,2.459,4.634,3.238,7.014,2.526,7.725-1.066,1.066-44.924,1.783-64.1,1.048Zm-7.235-108.552V132.007l4.08,1.439c5.488,1.936,9.085,1.812,11.827-.409,2.135-1.728,2.2-2.113,1.06-5.927-1.569-5.236-.272-8.046,3.712-8.046,4.228,0,5.3,1.975,4.5,8.324-.65,5.2-.56,5.517,1.854,6.617,1.943.885,3.958.876,8.611-.04,3.341-.657,6.346-.925,6.676-.594s.784,3.476,1.008,6.99c.378,5.933.261,6.389-1.639,6.389a16.336,16.336,0,0,1-5-1.184c-4.478-2.04-8.681,3.183-8.25,9.589.073,1.088,1.34,3.02,2.814,4.294,2.677,2.313,3.664,2.363,10.167.521,2.368-.671,2.369-.666,1.674,5.482-1.107,9.781.88,8.986-22.443,8.986h-20.66Zm77.376-28.33c-2.311-1.144-4.2-2.59-4.2-3.213s1.557-2.375,3.461-3.894c2.772-2.212,3.461-3.452,3.461-6.227,0-4.007-3.848-8.316-7.427-8.316-3.383,0-7.1,3.515-7.831,7.4-.359,1.913-1.016,3.478-1.461,3.478s-2.913-2.25-5.485-5l-4.676-5,5.1-5.393c3.986-4.215,5.032-5.979,4.788-8.077-.265-2.285-.93-2.805-4.463-3.5-4.815-.946-6.073-3.25-4.219-7.727,1.686-4.072,5.622-4.944,8.1-1.794,4.668,5.946,4.659,5.939,6.716,4.839,2.439-1.305,4.78-4.81,6.441-9.643.7-2.035,1.647-3.6,2.105-3.472,1.689.46,33.959,24.135,33.959,24.914,0,.444-2.114,3.737-4.7,7.318s-7.589,10.739-11.124,15.905c-6.292,9.2-6.51,9.394-10.383,9.437a21.57,21.57,0,0,1-8.158-2.037Z" transform="translate(0 0)" fill="#fff"/>
    </g>
    <g id="hot_pixel">
      <g id="hot-spices" transform="translate(-792.168 1254.861)">
        <g id="Group_2" data-name="Group 2" transform="translate(1683.168 -759.217)">
          <path id="Subtraction_7" data-name="Subtraction 7" d="M33.505,327.356a141.971,141.971,0,0,1-23.82-42.1,158.971,158.971,0,0,1-6.821-25.508A182.739,182.739,0,0,1,.047,231.289C-1.131,178.1,19.643,142.933,67.4,117.25a85.541,85.541,0,0,0-9.256,26.775,83.954,83.954,0,0,0-1.16,13.273,79.612,79.612,0,0,0,.919,12.69,67.119,67.119,0,0,0,6.3,20.1,46.392,46.392,0,0,0,11.4,14.795,75.356,75.356,0,0,1-.9-12.377,76.71,76.71,0,0,1,1.062-11.833,93.994,93.994,0,0,1,6.847-22.285c6.273-14.324,15.506-27.777,24.434-40.788l0-.006c7.925-11.547,15.409-22.453,20.886-33.8a85.845,85.845,0,0,0,6.346-17.234,58.061,58.061,0,0,0,1.6-17.889c-1.123-16.183-9.477-32.08-25.54-48.6V0c24.543,3.975,45.518,12.818,62.343,26.28a110.236,110.236,0,0,1,20.623,21.7,115.98,115.98,0,0,1,13.916,25.8,131.854,131.854,0,0,1,7.582,29.588,152.318,152.318,0,0,1,1,31.342,169.93,169.93,0,0,1-5.322,31.779,178.856,178.856,0,0,1-11.373,30.9,133.548,133.548,0,0,0,15.8-9.695,94.847,94.847,0,0,0,12.811-10.989,71.46,71.46,0,0,0,9.622-12.355,60.415,60.415,0,0,0,8.579-25.192,69.694,69.694,0,0,0,.218-12.288,86.127,86.127,0,0,0-1.991-13.211A112.482,112.482,0,0,0,239.863,99.5a111.413,111.413,0,0,1,25.682,23.67,137.483,137.483,0,0,1,18.506,31.19A171.955,171.955,0,0,1,295.1,191.065a202.734,202.734,0,0,1,3.31,40.224,195.074,195.074,0,0,1-2.436,28.16,165.608,165.608,0,0,1-6.112,25.184,141.24,141.24,0,0,1-21.671,41.521,249.127,249.127,0,0,0,5.523-28.208,289.488,289.488,0,0,0,2.556-30.673,302.264,302.264,0,0,0-.734-32.116,288.5,288.5,0,0,0-4.343-32.538c-7.007,11.88-14.646,20.889-22.705,26.778-7.451,5.445-15.216,8.206-23.077,8.207a35.063,35.063,0,0,1-11.72-2.061,44.519,44.519,0,0,1-11.038-5.865,62.066,62.066,0,0,1-10.084-9.191,84.82,84.82,0,0,1-8.857-12.038,108.267,108.267,0,0,1-7.36-14.407,127.315,127.315,0,0,1-5.591-16.3,138.381,138.381,0,0,1-3.549-17.708,140.708,140.708,0,0,1-1.237-18.641,101.861,101.861,0,0,1-4.7,19.97,135.483,135.483,0,0,1-8.638,19.83,169.874,169.874,0,0,1-26.014,36.13c-10.214,10.86-21.467,19.934-32.546,26.24a86.457,86.457,0,0,1-16.8,7.468A54.317,54.317,0,0,1,61.132,253.7h-.005a35.618,35.618,0,0,1-18.118-4.65,39.99,39.99,0,0,1-14.345-14.98,164.238,164.238,0,0,0-3.393,45.167,220.153,220.153,0,0,0,8.237,48.122Z" transform="translate(0 0)" fill="url(#linear-gradient)"/>
        </g>
      </g>
      <g transform="matrix(1, 0, 0, 1, 0, 0)" filter="url(#Rectangle_3)">
        <g id="Rectangle_3-2" data-name="Rectangle 3" transform="translate(889 701)" fill="#fff" stroke="#000" stroke-width="100">
          <rect width="300" height="300" stroke="none"/>
          <rect x="50" y="50" width="200" height="200" fill="none"/>
        </g>
      </g>
    </g>
    <g id="dead_pixel">
      <g id="dripping-goo" transform="translate(-64.299 524.454)">
        <g id="Group_1" data-name="Group 1" transform="translate(1603.671 223.546)">
          <path id="Path_2" data-name="Path 2" d="M200.283,17.28c-38.652,0-73.743,11.316-99.593,30.091S57.969,92.941,57.969,123.137c0,18.948,6.638,36.575,17.978,51.705,14.381,32.507,24.814,80.015,14.6,113.011-2.5,8.072-13.528,29.769-13.528,39.639,0,13.381,12.554,29.358,24.742,29.358s24.762-15.977,24.764-29.358c0-9.931-10.768-31.374-12.838-39.64-8.128-32.454-7.3-73.413,12.526-74.226a168.186,168.186,0,0,0,29.86,10.184c16.285,8.425,23.9,41.173,15.553,54.369-1.944,3.076-9.79,11.731-9.79,20.248,0,8.679,6.978,18.344,17.132,18.344,9.48,0,17.133-8.261,17.133-18.344,0-9.918-8.67-17.1-10.281-20.248-6.1-14.844-4.761-39.88,13.373-40.959,20.769-1.237,30.1,65.066,17.957,84.287-3.229,5.109-16.644,21.165-16.644,36.369,0,15.53,10.967,32.266,28.392,32.263,17.765,0,28.37-18.681,28.37-32.263,0-13.257-14.46-31.138-17.133-36.368-11.7-22.886-6.565-93.544,20.559-102.165a11.588,11.588,0,0,0,2.181-1.05q4.638-1.685,9.078-3.616c.013-.005.031.005.045,0,27.924-4.074,25.486,31.336,39.494,31.336,12.351,0,6.995-48.095,20.428-82.456a83.086,83.086,0,0,0,10.68-40.423c0-30.194-16.851-56.987-42.7-75.764S238.935,17.28,200.283,17.28ZM154.469,37.871c-31.9,15.534-53.024,42.529-53.024,73.224,0,48.147,51.946,87.169,116.015,87.169,50.966,0,94.232-24.716,109.8-59.057-4.562,18.006-16.7,34.449-34.711,47.531-17.459,12.682-40.266,21.909-65.905,25.718-13.95.954-29.42,3.443-45.124.954-28.717-3-54.329-12.752-73.494-26.672-23.25-16.89-36.757-39.371-36.757-63.6S84.781,76.449,108.032,59.56A142.883,142.883,0,0,1,154.47,37.871ZM312.981,260.936c-11.184,0-20.248,9.951-20.248,22.228s9.064,22.225,20.248,22.225,20.248-9.949,20.248-22.226-9.064-22.228-20.248-22.228Z" transform="translate(-57.969 -17.28)" fill="url(#linear-gradient-2)"/>
        </g>
      </g>
      <g transform="matrix(1, 0, 0, 1, 0, 0)" filter="url(#Rectangle_4)">
        <g id="Rectangle_4-2" data-name="Rectangle 4" transform="translate(1534 549)" stroke="#fff" stroke-width="100">
          <rect width="300" height="300" stroke="none"/>
          <rect x="50" y="50" width="200" height="200" fill="none"/>
        </g>
      </g>
    </g>
    <text id="deadpixel_dead" transform="translate(1925 674)" font-size="95" font-family="Spartan" font-weight="800"><tspan x="0" y="0">DEAD</tspan></text>
    <text id="hotpixel_hot" transform="translate(558 814)" font-size="110" font-family="Spartan" font-weight="800"><tspan x="0" y="0">HOT</tspan></text>
    <g transform="matrix(1, 0, 0, 1, 0, 0)" filter="url(#hotpixel_pixel)">
      <text id="hotpixel_pixel-2" data-name="hotpixel_pixel" transform="translate(574 915)" font-size="70" font-family="Spartan" font-weight="800"><tspan x="0" y="0">PIXEL</tspan></text>
    </g>
    <g transform="matrix(1, 0, 0, 1, 0, 0)" filter="url(#deadpixel_pixel)">
      <text id="deadpixel_pixel-2" data-name="deadpixel_pixel" transform="translate(1928 779)" font-size="70" font-family="Spartan" font-weight="800"><tspan x="0" y="0">PIXEL</tspan></text>
    </g>
  </g>
</svg>
