<svg xmlns="http://www.w3.org/2000/svg" xmlns:xlink="http://www.w3.org/1999/xlink" width="262.147" height="225.889" viewBox="0 0 262.147 225.889">
  <defs>
    <linearGradient id="linear-gradient" x2="1" gradientUnits="objectBoundingBox">
      <stop offset="0" stop-color="#d00202"/>
      <stop offset="1" stop-color="#f5d323"/>
    </linearGradient>
  </defs>
  <g id="hot-spices" transform="translate(-1683.168 759.217)">
    <g id="Group_2" data-name="Group 2" transform="translate(1683.168 -759.217)">
      <path id="Subtraction_7" data-name="Subtraction 7" d="M29.431,225.889A95.106,95.106,0,0,1,8.507,196.835a91.667,91.667,0,0,1-5.992-17.6A100.051,100.051,0,0,1,.042,159.6C-.993,122.9,17.254,98.629,59.208,80.907a51.188,51.188,0,0,0-8.13,18.476,45.873,45.873,0,0,0-1.019,9.159,43.408,43.408,0,0,0,.807,8.757A39.579,39.579,0,0,0,56.4,131.167a34.413,34.413,0,0,0,10.011,10.209,41.089,41.089,0,0,1-.787-8.541,41.93,41.93,0,0,1,.933-8.165,55.149,55.149,0,0,1,6.014-15.377c5.511-9.884,13.62-19.167,21.463-28.145l0,0c6.961-7.968,13.535-15.494,18.347-23.323a51.808,51.808,0,0,0,5.574-11.892,31.817,31.817,0,0,0,1.408-12.344c-.987-11.167-8.325-22.136-22.434-33.536V0c21.559,2.743,39.983,8.845,54.762,18.135A87.965,87.965,0,0,1,169.8,33.109a76.584,76.584,0,0,1,12.224,17.8,75.751,75.751,0,0,1,6.66,20.417,82.782,82.782,0,0,1,.875,21.627,94.576,94.576,0,0,1-4.675,21.929,108,108,0,0,1-9.99,21.322,126.41,126.41,0,0,0,13.877-6.69,81.243,81.243,0,0,0,11.254-7.583,53.09,53.09,0,0,0,8.452-8.526,38.512,38.512,0,0,0,5.479-9.519,34.719,34.719,0,0,0,2.057-7.865,37.837,37.837,0,0,0,.191-8.479,47.688,47.688,0,0,0-1.749-9.116,65.81,65.81,0,0,0-3.765-9.774,92.559,92.559,0,0,1,38.815,37.856,100.679,100.679,0,0,1,9.7,25.33,110.758,110.758,0,0,1,2.908,27.756,106.57,106.57,0,0,1-2.14,19.432,94.543,94.543,0,0,1-5.369,17.378,92.489,92.489,0,0,1-19.035,28.651,139.8,139.8,0,0,0,4.852-19.465,158.008,158.008,0,0,0,2.245-21.166,164,164,0,0,0-.645-22.162,159.028,159.028,0,0,0-3.815-22.452c-6.155,8.2-12.865,14.414-19.944,18.478A40.418,40.418,0,0,1,198,163.956a38.435,38.435,0,0,1-10.295-1.422,43.584,43.584,0,0,1-9.7-4.047,52.137,52.137,0,0,1-8.858-6.342,61.834,61.834,0,0,1-7.78-8.307,70.393,70.393,0,0,1-6.465-9.941A75.929,75.929,0,0,1,150,122.651a77.771,77.771,0,0,1-3.118-12.219,76.635,76.635,0,0,1-1.087-12.863,57.993,57.993,0,0,1-4.132,13.78,84.622,84.622,0,0,1-7.588,13.683,122.827,122.827,0,0,1-22.851,24.931A125.219,125.219,0,0,1,82.632,168.07a87.632,87.632,0,0,1-14.76,5.153A59.708,59.708,0,0,1,53.7,175.061h0a38.157,38.157,0,0,1-15.915-3.209,32.043,32.043,0,0,1-12.6-10.337A89.772,89.772,0,0,0,22.2,192.682a122.7,122.7,0,0,0,7.236,33.206Z" transform="translate(0 0)" fill="url(#linear-gradient)"/>
    </g>
  </g>

</svg>
