<svg xmlns="http://www.w3.org/2000/svg" width="1217" height="933" viewBox="0 0 1217 933">
  <g id="sushi" transform="translate(-53 -44)">
    <rect id="frame" width="1217" height="933" transform="translate(53 44)" fill="none"/>
    <ellipse id="bg2" cx="269" cy="260.5" rx="269" ry="260.5" transform="translate(212 280)" fill="rgba(255,255,255,0.43)" opacity="0.996"/>
    <ellipse id="bg1" cx="101" cy="94" rx="101" ry="94" transform="translate(719 127)" fill="rgba(255,255,255,0.43)"/>
    <g id="bowl" transform="translate(-134 -103)">
      <path id="Path_9" data-name="Path 9" d="M773.45,897.3s255.406,133.421,394.259,134.928,238.755-26.556,127.527-100.725S773.45,897.3,773.45,897.3h0" transform="translate(-57 4)" fill="#2dcb84"/>
      <path id="Path_3" data-name="Path 3" d="M760,897c4.32-.3-77.28-1.163-117-39S487,702,487,702s-1.649-39,273-39,273,39,273,39L877,858s-.863-1.048,0,0c-.414-.151-23.957,22.526-47.652,30.355C795.615,899.5,758.126,897.13,760,897Z" transform="translate(-19)" fill="none" stroke="#fff" stroke-linecap="round" stroke-linejoin="round" stroke-width="12"/>
      <path id="Path_4" data-name="Path 4" d="M487,702s-3,24.093,273,22.993S1033,702,1033,702" transform="translate(-19)" fill="none" stroke="#fff" stroke-linecap="round" stroke-linejoin="round" stroke-width="12"/>
    </g>
    <path id="chopstick2" d="M-7.333,409.808a6.484,6.484,0,0,1-1.077.517s0-.425,0-1.245a10.925,10.925,0,0,1-3.865-6.17c-.958-3.885-3.7-172-5.37-286.186-.869-59.468-1.447-104.312-1.342-104.591.16-.425-.044-5.529,3.352-9.122C-13.483.733-9.3-.863-7.333.508c1.97-1.371,6.15.225,8.3,2.5,3.4,3.593,3.192,8.7,3.352,9.122.1.278-.473,45.122-1.342,104.591C1.31,230.911-1.434,399.026-2.391,402.91a10.925,10.925,0,0,1-3.865,6.17c0,.82,0,1.245,0,1.245A6.484,6.484,0,0,1-7.333,409.808Z" transform="matrix(0.719, 0.695, -0.695, 0.719, 1004.154, 397.043)" fill="#fff"/>
    <path id="chopstick1" d="M-7.333,409.808a6.484,6.484,0,0,1-1.077.517s0-.425,0-1.245a10.925,10.925,0,0,1-3.865-6.17c-.958-3.885-3.7-172-5.37-286.186-.869-59.468-1.447-104.312-1.342-104.591.16-.425-.044-5.529,3.352-9.122C-13.483.733-9.3-.863-7.333.508c1.97-1.371,6.15.225,8.3,2.5,3.4,3.593,3.192,8.7,3.352,9.122.1.278-.473,45.122-1.342,104.591C1.31,230.911-1.434,399.026-2.391,402.91a10.925,10.925,0,0,1-3.865,6.17c0,.82,0,1.245,0,1.245A6.484,6.484,0,0,1-7.333,409.808Z" transform="translate(917.313 309.449) rotate(31)" fill="#fff"/>
    <g id="sushi2" transform="translate(406.82 361.65) rotate(31)">
      <path id="Union_3" data-name="Union 3" d="M0,62.638V13.363C0,5.983,21.714,0,48.5,0S97,5.983,97,13.363V62.638C97,70.017,75.286,76,48.5,76S0,70.017,0,62.638Z" transform="translate(257 207)" fill="#2f2929"/>
      <ellipse id="Ellipse_3" data-name="Ellipse 3" cx="41.5" cy="9" rx="41.5" ry="9" transform="translate(264 212)" fill="#fff"/>
    </g>
    <g id="sushi1" transform="matrix(0.819, -0.574, 0.574, 0.819, 262.986, 707.189)">
      <path id="Union_3-2" data-name="Union 3" d="M0,57.626V12.294C0,5.5,19.977,0,44.619,0S89.239,5.5,89.239,12.294V57.626c0,6.789-19.977,12.293-44.619,12.293S0,64.415,0,57.626Z" transform="translate(257 207)" fill="#2f2929"/>
      <ellipse id="Ellipse_3-2" data-name="Ellipse 3" cx="38.179" cy="8.28" rx="38.179" ry="8.28" transform="translate(263.44 211.6)" fill="#fff"/>
    </g>
  </g>
</svg>
